<?xml version="1.0" encoding="UTF-8" standalone="no"?>
<svg
   xmlns:dc="http://purl.org/dc/elements/1.1/"
   xmlns:cc="http://creativecommons.org/ns#"
   xmlns:rdf="http://www.w3.org/1999/02/22-rdf-syntax-ns#"
   xmlns:svg="http://www.w3.org/2000/svg"
   xmlns="http://www.w3.org/2000/svg"
   viewBox="0 0 576 576"
   height="576"
   width="576"
   xml:space="preserve"
   id="svg2"
   version="1.1"><metadata
     id="metadata8"><rdf:RDF><cc:Work
         rdf:about=""><dc:format>image/svg+xml</dc:format><dc:type
           rdf:resource="http://purl.org/dc/dcmitype/StillImage" /></cc:Work></rdf:RDF></metadata><defs
     id="defs6"><clipPath
       id="clipPath18"
       clipPathUnits="userSpaceOnUse"><path
         id="path16"
         d="M 0,432 H 432 V 0 H 0 Z" /></clipPath></defs><g
     transform="matrix(1.3333333,0,0,-1.3333333,0,576)"
     id="g10"><g
       id="g12"><g
         clip-path="url(#clipPath18)"
         id="g14"><path
           id="path20"
           style="fill:#fff;fill-opacity:1;fill-rule:nonzero;stroke:none"
           d="M 61.713,200.022 H 41.734 v 6.368 h 19.979 z m 2.819,14.292 H 39.205 v -28.535 h -6.319 v 31.671 c 0,0.437 0.081,0.85 0.243,1.239 0.162,0.389 0.384,0.729 0.668,1.02 0.284,0.292 0.62,0.519 1.009,0.681 0.389,0.162 0.81,0.243 1.264,0.243 h 28.462 z" /><path
           id="path22"
           style="fill:#fff;fill-opacity:1;fill-rule:nonzero;stroke:none"
           d="m 75.358,185.779 h -6.32 v 34.854 h 6.32 z" /><g
           transform="translate(116.8899,208.9184)"
           id="g24"><path
             id="path26"
             style="fill:#fff;fill-opacity:1;fill-rule:nonzero;stroke:none"
             d="M 0,0 C 0,-1.442 -0.178,-2.731 -0.535,-3.865 -0.891,-4.999 -1.373,-6 -1.981,-6.867 -2.588,-7.733 -3.29,-8.476 -4.083,-9.091 c -0.794,-0.616 -1.625,-1.122 -2.492,-1.519 -0.866,-0.397 -1.742,-0.685 -2.625,-0.863 -0.883,-0.178 -1.713,-0.267 -2.491,-0.267 l 13.198,-11.4 h -9.771 l -13.173,11.4 h -4.546 v 6.319 h 14.292 c 0.794,0.065 1.519,0.232 2.175,0.499 0.657,0.267 1.224,0.627 1.702,1.081 0.478,0.453 0.846,1 1.106,1.641 0.259,0.639 0.389,1.373 0.389,2.2 v 3.985 c 0,0.357 -0.045,0.628 -0.134,0.815 -0.089,0.186 -0.203,0.324 -0.34,0.413 -0.138,0.089 -0.284,0.141 -0.438,0.158 -0.154,0.016 -0.296,0.025 -0.425,0.025 H -28.511 V -23.14 H -34.83 V 8.531 c 0,0.438 0.08,0.851 0.243,1.24 0.162,0.388 0.384,0.729 0.668,1.02 0.284,0.292 0.62,0.519 1.009,0.681 0.389,0.162 0.81,0.243 1.264,0.243 h 23.99 c 1.409,0 2.6,-0.255 3.573,-0.766 0.972,-0.51 1.762,-1.15 2.37,-1.92 0.607,-0.769 1.045,-1.6 1.312,-2.491 C -0.133,5.646 0,4.812 0,4.034 Z" /></g><g
           transform="translate(156.7966,196.0356)"
           id="g28"><path
             id="path30"
             style="fill:#fff;fill-opacity:1;fill-rule:nonzero;stroke:none"
             d="m 0,0 c 0,-1.248 -0.158,-2.369 -0.474,-3.366 -0.316,-0.996 -0.733,-1.876 -1.252,-2.637 -0.518,-0.762 -1.126,-1.41 -1.822,-1.945 -0.697,-0.534 -1.418,-0.972 -2.163,-1.313 -0.746,-0.34 -1.504,-0.591 -2.273,-0.753 -0.77,-0.162 -1.495,-0.243 -2.176,-0.243 h -24.379 v 6.319 h 24.379 c 1.216,0 2.16,0.357 2.832,1.07 0.672,0.713 1.009,1.669 1.009,2.868 0,0.584 -0.09,1.118 -0.268,1.604 C -6.765,2.091 -7.021,2.512 -7.353,2.868 -7.685,3.225 -8.09,3.5 -8.567,3.694 -9.046,3.89 -9.576,3.986 -10.16,3.986 h -14.535 c -1.02,0 -2.122,0.183 -3.305,0.547 -1.183,0.364 -2.281,0.952 -3.293,1.763 -1.014,0.809 -1.856,1.871 -2.528,3.183 -0.673,1.313 -1.009,2.917 -1.009,4.813 0,1.896 0.336,3.496 1.009,4.801 0.672,1.303 1.514,2.365 2.528,3.183 1.012,0.819 2.11,1.411 3.293,1.775 1.183,0.365 2.285,0.547 3.305,0.547 h 21.511 v -6.32 h -21.511 c -1.199,0 -2.135,-0.364 -2.807,-1.093 -0.672,-0.73 -1.009,-1.694 -1.009,-2.893 0,-1.215 0.337,-2.175 1.009,-2.88 0.672,-0.705 1.608,-1.058 2.807,-1.058 h 14.535 0.049 c 0.68,-0.016 1.402,-0.109 2.163,-0.279 0.761,-0.17 1.519,-0.433 2.273,-0.79 0.753,-0.356 1.47,-0.806 2.151,-1.348 C -2.844,7.394 -2.24,6.741 -1.713,5.979 -1.187,5.218 -0.77,4.343 -0.461,3.354 -0.154,2.366 0,1.248 0,0" /></g><g
           transform="translate(192.5823,214.3139)"
           id="g32"><path
             id="path34"
             style="fill:#fff;fill-opacity:1;fill-rule:nonzero;stroke:none"
             d="m 0,0 h -13.927 v -28.535 h -6.32 V 0 H -34.199 V 6.319 H 0 Z" /></g><g
           transform="translate(244.6208,185.7787)"
           id="g36"><path
             id="path38"
             style="fill:#fff;fill-opacity:1;fill-rule:nonzero;stroke:none"
             d="m 0,0 h -22.799 c -0.583,0 -1.212,0.068 -1.884,0.207 -0.672,0.137 -1.337,0.352 -1.993,0.644 -0.656,0.292 -1.284,0.669 -1.884,1.129 -0.599,0.462 -1.129,1.022 -1.591,1.678 -0.462,0.656 -0.831,1.418 -1.106,2.284 -0.276,0.868 -0.413,1.844 -0.413,2.93 v 17.111 c 0,0.583 0.068,1.211 0.206,1.884 0.137,0.672 0.353,1.336 0.644,1.993 0.292,0.657 0.673,1.284 1.143,1.883 0.469,0.6 1.032,1.131 1.689,1.593 0.656,0.462 1.414,0.83 2.272,1.105 0.86,0.276 1.831,0.413 2.917,0.413 H 0 v -6.319 h -22.799 c -0.826,0 -1.458,-0.219 -1.895,-0.656 -0.438,-0.438 -0.657,-1.086 -0.657,-1.944 V 8.872 c 0,-0.81 0.222,-1.438 0.668,-1.884 0.446,-0.446 1.074,-0.669 1.884,-0.669 L 0,6.319 Z" /></g><g
           transform="translate(281.7361,185.7787)"
           id="g40"><path
             id="path42"
             style="fill:#fff;fill-opacity:1;fill-rule:nonzero;stroke:none"
             d="m 0,0 h -28.827 c -0.454,0 -0.875,0.081 -1.264,0.243 -0.389,0.162 -0.725,0.385 -1.009,0.668 -0.284,0.283 -0.506,0.62 -0.669,1.009 -0.162,0.389 -0.243,0.81 -0.243,1.264 v 31.67 h 6.321 V 6.319 L 0,6.319 Z" /></g><g
           transform="translate(292.0007,200.6537)"
           id="g44"><path
             id="path46"
             style="fill:#fff;fill-opacity:1;fill-rule:nonzero;stroke:none"
             d="M 0,0 H 22.216 V 13.66 H 11.108 c -0.194,0 -0.603,-0.028 -1.227,-0.085 C 9.257,13.519 8.536,13.377 7.718,13.149 6.899,12.923 6.036,12.574 5.129,12.104 4.222,11.635 3.387,10.986 2.626,10.16 1.863,9.334 1.236,8.301 0.742,7.062 0.247,5.821 0,4.318 0,2.553 Z m 28.536,-14.875 h -6.32 v 8.556 H 0 v -8.556 H -6.319 V 2.553 c 0,2.543 0.437,4.884 1.312,7.024 0.875,2.139 2.091,3.978 3.647,5.518 1.555,1.539 3.394,2.737 5.517,3.596 2.122,0.859 4.44,1.288 6.951,1.288 h 14.244 c 0.437,0 0.85,-0.081 1.239,-0.243 0.389,-0.162 0.729,-0.388 1.021,-0.68 0.291,-0.291 0.519,-0.632 0.681,-1.021 0.161,-0.389 0.243,-0.802 0.243,-1.239 z" /></g><g
           transform="translate(360.7585,196.0356)"
           id="g48"><path
             id="path50"
             style="fill:#fff;fill-opacity:1;fill-rule:nonzero;stroke:none"
             d="m 0,0 c 0,-1.248 -0.158,-2.369 -0.475,-3.366 -0.315,-0.996 -0.733,-1.876 -1.251,-2.637 -0.519,-0.762 -1.127,-1.41 -1.823,-1.945 -0.697,-0.534 -1.418,-0.972 -2.163,-1.313 -0.746,-0.34 -1.503,-0.591 -2.272,-0.753 -0.771,-0.162 -1.495,-0.243 -2.176,-0.243 h -24.379 v 6.319 h 24.379 c 1.215,0 2.159,0.357 2.832,1.07 0.672,0.713 1.009,1.669 1.009,2.868 0,0.584 -0.09,1.118 -0.268,1.604 C -6.766,2.091 -7.021,2.512 -7.353,2.868 -7.686,3.225 -8.091,3.5 -8.568,3.694 -9.046,3.89 -9.577,3.986 -10.16,3.986 h -14.535 c -1.021,0 -2.123,0.183 -3.306,0.547 -1.183,0.364 -2.28,0.952 -3.293,1.763 -1.013,0.809 -1.855,1.871 -2.528,3.183 -0.672,1.313 -1.009,2.917 -1.009,4.813 0,1.896 0.337,3.496 1.009,4.801 0.673,1.303 1.515,2.365 2.528,3.183 1.013,0.819 2.11,1.411 3.293,1.775 1.183,0.365 2.285,0.547 3.306,0.547 h 21.51 v -6.32 h -21.51 c -1.2,0 -2.135,-0.364 -2.808,-1.093 -0.672,-0.73 -1.008,-1.694 -1.008,-2.893 0,-1.215 0.336,-2.175 1.008,-2.88 0.673,-0.705 1.608,-1.058 2.808,-1.058 h 14.535 0.049 c 0.68,-0.016 1.401,-0.109 2.163,-0.279 0.761,-0.17 1.519,-0.433 2.272,-0.79 0.754,-0.356 1.471,-0.806 2.152,-1.348 0.68,-0.543 1.284,-1.196 1.81,-1.958 C -1.187,5.218 -0.771,4.343 -0.462,3.354 -0.154,2.366 0,1.248 0,0" /></g><g
           transform="translate(399.114,196.0356)"
           id="g52"><path
             id="path54"
             style="fill:#fff;fill-opacity:1;fill-rule:nonzero;stroke:none"
             d="m 0,0 c 0,-1.248 -0.158,-2.369 -0.475,-3.366 -0.315,-0.996 -0.733,-1.876 -1.251,-2.637 -0.519,-0.762 -1.127,-1.41 -1.823,-1.945 -0.697,-0.534 -1.418,-0.972 -2.163,-1.313 -0.746,-0.34 -1.503,-0.591 -2.272,-0.753 -0.771,-0.162 -1.495,-0.243 -2.176,-0.243 h -24.379 v 6.319 h 24.379 c 1.215,0 2.159,0.357 2.832,1.07 0.672,0.713 1.009,1.669 1.009,2.868 0,0.584 -0.09,1.118 -0.268,1.604 C -6.766,2.091 -7.021,2.512 -7.353,2.868 -7.686,3.225 -8.091,3.5 -8.568,3.694 -9.046,3.89 -9.577,3.986 -10.16,3.986 h -14.535 c -1.021,0 -2.123,0.183 -3.306,0.547 -1.183,0.364 -2.28,0.952 -3.293,1.763 -1.013,0.809 -1.855,1.871 -2.528,3.183 -0.672,1.313 -1.009,2.917 -1.009,4.813 0,1.896 0.337,3.496 1.009,4.801 0.673,1.303 1.515,2.365 2.528,3.183 1.013,0.819 2.11,1.411 3.293,1.775 1.183,0.365 2.285,0.547 3.306,0.547 h 21.51 v -6.32 h -21.51 c -1.2,0 -2.135,-0.364 -2.808,-1.093 -0.672,-0.73 -1.008,-1.694 -1.008,-2.893 0,-1.215 0.336,-2.175 1.008,-2.88 0.673,-0.705 1.608,-1.058 2.808,-1.058 h 14.535 0.049 c 0.68,-0.016 1.401,-0.109 2.163,-0.279 0.761,-0.17 1.519,-0.433 2.272,-0.79 0.754,-0.356 1.471,-0.806 2.152,-1.348 0.68,-0.543 1.284,-1.196 1.81,-1.958 C -1.187,5.218 -0.771,4.343 -0.462,3.354 -0.154,2.366 0,1.248 0,0" /></g><g
           transform="translate(152.9139,166.7448)"
           id="g56"><path
             id="path58"
             style="fill:#fff;fill-opacity:1;fill-rule:nonzero;stroke:none"
             d="M 0,0 V 8.388 C 0,8.497 -0.039,8.591 -0.118,8.67 -0.198,8.749 -0.292,8.789 -0.401,8.789 H -8.79 C -8.899,8.789 -8.994,8.749 -9.072,8.67 -9.151,8.591 -9.191,8.497 -9.191,8.388 V 0 c 0,-0.109 0.04,-0.204 0.119,-0.283 0.078,-0.079 0.173,-0.118 0.282,-0.118 h 8.389 c 0.109,0 0.203,0.039 0.283,0.118 C -0.039,-0.204 0,-0.109 0,0 m -11.16,10.759 h 10.759 c 0.656,0 1.215,-0.232 1.677,-0.694 C 1.738,9.604 1.969,9.044 1.969,8.388 V 0 C 1.969,-0.657 1.738,-1.216 1.276,-1.678 0.814,-2.14 0.255,-2.371 -0.401,-2.371 H -11.16 Z" /></g><g
           transform="translate(162.8155,170.6472)"
           id="g60"><path
             id="path62"
             style="fill:#fff;fill-opacity:1;fill-rule:nonzero;stroke:none"
             d="M 0,0 H 6.82 V 1.933 C 6.82,2.042 6.781,2.136 6.702,2.215 6.623,2.294 6.529,2.334 6.419,2.334 H 0.401 C 0.292,2.334 0.197,2.294 0.119,2.215 0.039,2.136 0,2.042 0,1.933 Z M 6.419,4.304 C 7.075,4.304 7.634,4.072 8.097,3.61 8.559,3.149 8.79,2.589 8.79,1.933 V -1.97 H 0 v -1.932 c 0,-0.11 0.039,-0.205 0.119,-0.284 0.078,-0.079 0.173,-0.118 0.282,-0.118 H 8.79 V -6.273 H 0.401 c -0.656,0 -1.215,0.23 -1.677,0.693 -0.463,0.462 -0.693,1.021 -0.693,1.678 v 5.835 c 0,0.656 0.23,1.216 0.693,1.677 0.462,0.462 1.021,0.694 1.677,0.694 z" /></g><g
           transform="translate(185.9196,174.9509)"
           id="g64"><path
             id="path66"
             style="fill:#fff;fill-opacity:1;fill-rule:nonzero;stroke:none"
             d="M 0,0 C 0.657,0 1.215,-0.231 1.678,-0.693 2.139,-1.155 2.37,-1.714 2.37,-2.371 v -8.206 H 0.401 v 8.206 c 0,0.109 -0.04,0.203 -0.119,0.282 C 0.203,-2.01 0.109,-1.97 0,-1.97 h -6.018 c -0.109,0 -0.203,-0.04 -0.282,-0.119 -0.08,-0.079 -0.119,-0.173 -0.119,-0.282 v -8.206 H -8.388 V 0 Z" /></g><g
           transform="translate(200.5261,172.9813)"
           id="g68"><path
             id="path70"
             style="fill:#fff;fill-opacity:1;fill-rule:nonzero;stroke:none"
             d="m 0,0 h -4.34 v -6.237 c 0,-0.109 0.039,-0.204 0.119,-0.283 0.078,-0.079 0.173,-0.118 0.282,-0.118 H 0 v -1.969 h -3.939 c -0.656,0 -1.216,0.23 -1.678,0.693 -0.462,0.462 -0.693,1.021 -0.693,1.677 v 5.836 5.835 h 1.97 V 1.97 l 4.34,0 z" /></g><g
           transform="translate(217.4115,171.0301)"
           id="g72"><path
             id="path74"
             style="fill:#fff;fill-opacity:1;fill-rule:nonzero;stroke:none"
             d="M 0,0 H 8.388 C 8.498,0 8.592,0.039 8.671,0.118 8.75,0.197 8.789,0.291 8.789,0.401 V 4.084 C 8.789,4.193 8.75,4.287 8.671,4.368 8.592,4.446 8.498,4.485 8.388,4.485 H 0 C -0.109,4.485 -0.204,4.446 -0.283,4.368 -0.362,4.287 -0.401,4.193 -0.401,4.084 V 0.401 c 0,-0.11 0.039,-0.204 0.118,-0.283 C -0.204,0.039 -0.109,0 0,0 M 10.759,4.084 V 0.401 c 0,-0.644 -0.231,-1.2 -0.694,-1.669 C 9.604,-1.736 9.044,-1.97 8.388,-1.97 H 7.057 l 3.702,-4.413 V -6.656 H 8.425 L 4.485,-1.97 H 0 c -0.097,0 -0.231,0.012 -0.401,0.037 V -6.656 H -2.37 V 6.455 H 8.388 c 0.656,0 1.216,-0.235 1.677,-0.702 0.463,-0.468 0.694,-1.024 0.694,-1.669" /></g><g
           transform="translate(235.9935,170.6472)"
           id="g76"><path
             id="path78"
             style="fill:#fff;fill-opacity:1;fill-rule:nonzero;stroke:none"
             d="M 0,0 H 6.82 V 1.933 C 6.82,2.042 6.781,2.136 6.702,2.215 6.622,2.294 6.527,2.334 6.418,2.334 H 0.401 C 0.291,2.334 0.197,2.294 0.118,2.215 0.039,2.136 0,2.042 0,1.933 Z M 6.418,4.304 C 7.075,4.304 7.634,4.072 8.096,3.61 8.558,3.149 8.789,2.589 8.789,1.933 V -1.97 H 0 v -1.932 c 0,-0.11 0.039,-0.205 0.118,-0.284 0.079,-0.079 0.173,-0.118 0.283,-0.118 H 8.789 V -6.273 H 0.401 c -0.656,0 -1.215,0.23 -1.677,0.693 -0.463,0.462 -0.694,1.021 -0.694,1.678 v 5.835 c 0,0.656 0.231,1.216 0.694,1.677 0.462,0.462 1.021,0.694 1.677,0.694 z" /></g><g
           transform="translate(264.2211,174.9509)"
           id="g80"><path
             id="path82"
             style="fill:#fff;fill-opacity:1;fill-rule:nonzero;stroke:none"
             d="m 0,0 c 0.657,0 1.216,-0.231 1.678,-0.693 0.461,-0.462 0.693,-1.021 0.693,-1.678 v -8.206 H 0.42 v 8.206 c 0,0.109 -0.039,0.203 -0.118,0.282 C 0.222,-2.01 0.122,-1.97 0,-1.97 h -4.175 c -0.11,0 -0.204,-0.04 -0.283,-0.119 -0.079,-0.079 -0.118,-0.173 -0.118,-0.282 v -8.206 h -1.97 v 8.206 c 0,0.109 -0.04,0.203 -0.119,0.282 -0.079,0.079 -0.173,0.119 -0.282,0.119 h -4.195 c -0.109,0 -0.203,-0.04 -0.282,-0.119 -0.079,-0.079 -0.119,-0.173 -0.119,-0.282 v -8.206 h -1.969 V 0 Z" /></g><g
           transform="translate(280.8886,172.9813)"
           id="g84"><path
             id="path86"
             style="fill:#fff;fill-opacity:1;fill-rule:nonzero;stroke:none"
             d="M 0,0 H -6.017 C -6.127,0 -6.221,-0.04 -6.3,-0.119 -6.379,-0.198 -6.418,-0.292 -6.418,-0.401 v -5.836 c 0,-0.109 0.039,-0.204 0.118,-0.283 0.079,-0.079 0.173,-0.118 0.283,-0.118 H 0 c 0.109,0 0.203,0.039 0.283,0.118 0.079,0.079 0.118,0.174 0.118,0.283 v 5.836 c 0,0.109 -0.039,0.203 -0.118,0.282 C 0.203,-0.04 0.109,0 0,0 M -6.017,1.97 H 0 C 0.657,1.97 1.216,1.738 1.678,1.276 2.139,0.814 2.371,0.255 2.371,-0.401 V -6.237 C 2.371,-6.893 2.139,-7.452 1.678,-7.914 1.216,-8.377 0.657,-8.607 0,-8.607 h -6.017 c -0.656,0 -1.216,0.23 -1.678,0.693 -0.462,0.462 -0.693,1.021 -0.693,1.677 v 5.836 c 0,0.656 0.231,1.215 0.693,1.677 0.462,0.462 1.022,0.694 1.678,0.694" /></g><g
           transform="translate(299.3235,174.9509)"
           id="g88"><path
             id="path90"
             style="fill:#fff;fill-opacity:1;fill-rule:nonzero;stroke:none"
             d="M 0,0 H 2.262 L -3.574,-10.577 H -5.543 L -11.378,0 H -9.1 l 4.542,-8.352 z" /></g><g
           transform="translate(315.7173,166.3435)"
           id="g92"><path
             id="path94"
             style="fill:#fff;fill-opacity:1;fill-rule:nonzero;stroke:none"
             d="M 0,0 V 2.334 H -6.819 V 0.401 c 0,-0.109 0.038,-0.204 0.117,-0.283 C -6.623,0.039 -6.529,0 -6.419,0 Z M -0.401,8.607 C 0.255,8.607 0.814,8.376 1.276,7.914 1.738,7.452 1.97,6.893 1.97,6.237 V -1.97 h -8.389 c -0.657,0 -1.216,0.231 -1.678,0.694 -0.462,0.462 -0.692,1.021 -0.692,1.677 V 4.304 H 0 V 6.237 C 0,6.346 -0.04,6.44 -0.119,6.519 -0.198,6.598 -0.292,6.638 -0.401,6.638 h -8.388 v 1.969 z" /></g><g
           transform="translate(323.2312,172.58)"
           id="g96"><path
             id="path98"
             style="fill:#fff;fill-opacity:1;fill-rule:nonzero;stroke:none"
             d="m 0,0 v 5.835 h 1.97 v -11.67 c 0,-0.109 0.039,-0.205 0.117,-0.284 0.079,-0.079 0.174,-0.118 0.283,-0.118 H 4.339 V -8.206 H 2.37 c -0.657,0 -1.216,0.23 -1.678,0.693 C 0.23,-7.051 0,-6.492 0,-5.835 Z" /></g><g
           transform="translate(332.785,166.3435)"
           id="g100"><path
             id="path102"
             style="fill:#fff;fill-opacity:1;fill-rule:nonzero;stroke:none"
             d="M 0,0 H 1.97 V -1.97 C 1.97,-2.554 1.781,-3.064 1.405,-3.501 1.028,-3.939 0.559,-4.206 0,-4.304 Z" /></g><g
           transform="translate(349.671,164.3739)"
           id="g104"><path
             id="path106"
             style="fill:#fff;fill-opacity:1;fill-rule:nonzero;stroke:none"
             d="M 0,0 V 13.148 H 1.97 V 1.97 H 13.13 V 0 Z" /></g><g
           transform="translate(367.8884,164.3739)"
           id="g108"><path
             id="path110"
             style="fill:#fff;fill-opacity:1;fill-rule:nonzero;stroke:none"
             d="M 0,0 V 13.148 H 1.97 V 1.97 H 13.13 V 0 Z" /></g><g
           transform="translate(399.1802,175.5339)"
           id="g112"><path
             id="path114"
             style="fill:#fff;fill-opacity:1;fill-rule:nonzero;stroke:none"
             d="m 0,0 h -10.722 c -0.109,0 -0.203,-0.04 -0.282,-0.119 -0.08,-0.079 -0.119,-0.173 -0.119,-0.282 v -8.388 c 0,-0.109 0.039,-0.205 0.119,-0.283 0.079,-0.079 0.173,-0.118 0.282,-0.118 H 0 v -1.97 h -10.722 c -0.656,0 -1.216,0.23 -1.677,0.693 -0.462,0.462 -0.694,1.021 -0.694,1.678 v 8.388 c 0,0.656 0.232,1.215 0.694,1.677 0.461,0.462 1.021,0.694 1.677,0.694 L 0,1.97 Z" /></g><path
           id="path116"
           style="fill:#fff;fill-opacity:1;fill-rule:nonzero;stroke:none"
           d="M 134,177.039 H 32.82 v -4.175 H 134 Z" /><g
           transform="translate(147.2828,230.6817)"
           id="g118"><path
             id="path120"
             style="fill:#fff;fill-opacity:1;fill-rule:nonzero;stroke:none"
             d="m 0,0 c -11.282,4.869 -23.09,7.911 -35.148,10.063 -6.121,1.092 -12.284,1.866 -18.478,2.423 -4.534,0.408 -9.071,0.785 -13.619,0.873 -10.383,0.202 -20.767,0.179 -31.129,-0.668 -3.041,-0.248 -6.074,-0.585 -9.106,-0.925 -1.389,-0.156 -1.373,-0.204 -1.344,-1.514 0.076,-3.316 -0.499,-6.517 -1.694,-9.613 -0.573,-1.484 -1.288,-2.894 -2.069,-4.273 9.321,2.808 17.783,2.736 20.769,2.598 -0.119,0.143 -0.263,0.299 -0.457,0.489 -2.188,2.138 -4.457,4.18 -7.152,5.686 -0.252,0.14 -0.693,0.166 -0.622,0.773 3.773,0.46 7.581,0.68 11.407,0.667 3.832,-0.012 7.669,0.087 11.497,-0.054 3.773,-0.139 7.547,-0.199 11.319,-0.33 3.825,-0.133 7.648,-0.378 11.468,-0.628 3.819,-0.249 7.637,-0.534 11.451,-0.86 3.813,-0.326 7.62,-0.731 11.431,-1.086 3.757,-0.349 7.499,-0.826 11.236,-1.338 3.794,-0.519 7.589,-1.025 11.356,-1.715 3.71,-0.679 7.418,-1.375 11.127,-2.063 C 1.63,-0.646 0.799,-0.345 0,0" /></g><g
           transform="translate(359.5645,241.0514)"
           id="g122"><path
             id="path124"
             style="fill:#fff;fill-opacity:1;fill-rule:nonzero;stroke:none"
             d="m 0,0 c -8.823,1.777 -17.711,3.113 -26.673,3.95 -4.366,0.408 -8.733,0.745 -13.114,0.965 -4.825,0.243 -9.654,0.468 -14.477,0.385 -7.94,-0.138 -15.883,-0.224 -23.805,-0.958 -75.588,-9.557 -112.143,-6.337 -112.143,-6.337 8.144,-1.083 16.317,-1.905 24.503,-2.56 6.304,-0.504 12.616,-0.922 18.938,-1.205 6.487,-0.291 12.972,-0.579 19.465,-0.717 2.61,-0.056 5.22,0 7.826,-0.09 5.385,-0.187 10.772,-0.159 16.152,-0.041 13.27,0.292 26.54,0.632 39.773,1.81 4.091,0.364 8.205,0.433 12.306,0.68 4.927,0.296 9.871,0.382 14.819,0.364 6.773,-0.023 13.546,0.135 20.318,-0.154 3.548,-0.151 7.104,-0.2 10.646,-0.446 5.812,-0.403 11.617,-0.895 17.399,-1.655 8.383,-1.101 16.67,-2.624 24.746,-5.179 0.296,-0.094 0.592,-0.325 1.061,-0.062 -0.696,0.557 -1.477,0.786 -2.226,1.072 C 23.967,-5.771 12.112,-2.44 0,0" /></g><g
           transform="translate(106.6471,249.0939)"
           id="g126"><path
             id="path128"
             style="fill:#fff;fill-opacity:1;fill-rule:nonzero;stroke:none"
             d="m 0,0 c -0.942,0.594 -1.846,1.234 -2.616,2.051 -1.461,1.547 -1.294,2.576 0.595,3.444 0.554,0.255 1.135,0.455 1.713,0.652 17.062,5.806 34.68,8.541 52.622,9.308 5.817,0.249 11.653,0.185 17.487,-0.183 7.438,-0.469 14.811,-1.338 22.115,-2.791 15.508,-3.085 30.102,-8.547 43.6,-16.839 0.15,-0.091 0.293,-0.193 0.441,-0.288 3.088,0.351 8.573,0.968 14.829,1.647 -0.284,0.228 -0.594,0.432 -0.891,0.647 -8.799,6.394 -18.506,11.013 -28.745,14.538 -11.281,3.883 -22.889,6.285 -34.755,7.543 -7.519,0.798 -15.056,1.216 -22.602,1.125 -4.097,-0.049 -8.208,-0.171 -12.311,-0.453 -5.374,-0.37 -10.737,-0.828 -16.075,-1.513 -8.15,-1.045 -16.24,-2.456 -24.279,-4.18 -17.411,-3.735 -34.403,-8.88 -51.103,-15.022 -0.341,-0.125 -0.777,-0.153 -0.912,-0.869 7.975,0.441 15.889,0.56 23.802,0.192 C -9.12,-1.361 -1.22,-2.299 6.655,-3.73 6.333,-3.358 5.965,-3.156 5.586,-2.976 3.676,-2.074 1.789,-1.128 0,0" /></g><g
           transform="translate(38.2156,244.4482)"
           id="g130"><path
             id="path132"
             style="fill:#fff;fill-opacity:1;fill-rule:nonzero;stroke:none"
             d="m 0,0 c 0,0 -0.3,10.812 -3.52,15.596 0,0 12.87,-8.045 18.523,-14.133 C 15.003,1.463 6.74,1.582 0,0" /></g></g></g></g></svg>
